<svg width="150" height="236" viewBox="0 0 150 236" fill="none" xmlns="http://www.w3.org/2000/svg">
<path d="M52.1133 204.666L52.1133 195.776L150.002 195.776L150.002 204.666L52.1133 204.666Z" fill="black"/>
<path d="M39.8106 18.8176L44.4018 0.000255761L101.018 233.879L92.3776 235.97L39.8106 18.8176Z" fill="black"/>
<path d="M121.082 75.6132C121.082 86.6739 112.115 95.6404 101.055 95.6404C89.9938 95.6404 81.0273 86.6739 81.0273 75.6132C81.0273 64.5524 89.9938 55.5859 101.055 55.5859C112.115 55.5859 121.082 64.5524 121.082 75.6132Z" fill="black"/>
<path fill-rule="evenodd" clip-rule="evenodd" d="M71.5155 66.8574L0.00118056 44.2441L0.671875 42.123L72.1862 64.7364L71.5155 66.8574Z" fill="black"/>
<path fill-rule="evenodd" clip-rule="evenodd" d="M78.5074 81.1302L3.98659 89.6341L3.73438 87.4238L78.2552 78.92L78.5074 81.1302Z" fill="black"/>
<path fill-rule="evenodd" clip-rule="evenodd" d="M80.334 87.1387L7.26364 104.062L6.76172 101.895L79.8321 84.9715L80.334 87.1387Z" fill="black"/>
</svg>
