<svg width="80" height="126" viewBox="0 0 80 126" fill="none" xmlns="http://www.w3.org/2000/svg">
<path d="M27.793 109.154L27.793 104.413L80 104.413L80 109.154L27.793 109.154Z" fill="black"/>
<path d="M21.2336 10.0357L23.6823 -0.000254245L53.8774 124.735L49.2693 125.85L21.2336 10.0357Z" fill="black"/>
<path d="M64.5772 40.3277C64.5772 46.2267 59.7951 51.0089 53.896 51.0089C47.997 51.0089 43.2148 46.2267 43.2148 40.3277C43.2148 34.4286 47.997 29.6465 53.896 29.6465C59.7951 29.6465 64.5772 34.4286 64.5772 40.3277Z" fill="black"/>
<path fill-rule="evenodd" clip-rule="evenodd" d="M38.1427 35.6565L0.00167132 23.5961L0.359375 22.4648L38.5004 34.5253L38.1427 35.6565Z" fill="black"/>
<path fill-rule="evenodd" clip-rule="evenodd" d="M41.8711 43.2684L2.1267 47.8038L1.99219 46.625L41.7366 42.0896L41.8711 43.2684Z" fill="black"/>
<path fill-rule="evenodd" clip-rule="evenodd" d="M42.844 46.474L3.87316 55.4996L3.60547 54.3438L42.5763 45.3181L42.844 46.474Z" fill="black"/>
</svg>
